<svg width="38" height="23" viewBox="0 0 38 23" fill="none" xmlns="http://www.w3.org/2000/svg">
<path d="M37.7609 21.6978C37.2244 21.9007 36.6322 21.9003 36.096 21.6965C35.5598 21.4928 35.1168 21.0999 34.8504 20.5919L29.5515 13.2642L28.7836 12.2398L22.6354 20.6012C22.385 21.0878 21.966 21.4666 21.4566 21.6667C20.9472 21.8669 20.3824 21.8746 19.8677 21.6886L27.7899 11.0602L20.4206 1.45932C20.9505 1.26837 21.53 1.26584 22.0615 1.45215C22.5931 1.63846 23.0441 2.00224 23.3388 2.48222L28.8312 9.90059L34.3543 2.51294C34.6066 2.03495 35.0257 1.66634 35.532 1.47718C36.0384 1.28802 36.5965 1.2915 37.1004 1.48697L34.2406 5.28216L30.3671 10.3245C30.2595 10.4205 30.1734 10.5381 30.1145 10.6696C30.0556 10.8012 30.0251 10.9437 30.0251 11.0878C30.0251 11.232 30.0556 11.3745 30.1145 11.5061C30.1734 11.6376 30.2595 11.7552 30.3671 11.8512L37.7455 21.6993L37.7609 21.6978ZM0.902504 10.9281L1.54758 7.74113C3.32 1.43935 10.5448 -1.18242 15.515 2.71875C18.4255 5.0057 19.152 8.24336 19.0092 11.8926H2.61349C2.34778 18.4094 7.05069 22.3444 13.0637 20.3339C14.0385 19.983 14.911 19.3959 15.6031 18.625C16.2952 17.854 16.7853 16.9235 17.0294 15.9167C17.3473 14.8938 17.8711 14.7187 18.8325 15.0136C18.6723 16.2613 18.2312 17.4565 17.5425 18.5091C16.8537 19.5618 15.9352 20.4446 14.8561 21.0911C13.0736 22.0661 11.0284 22.4526 9.01298 22.1952C6.99758 21.9378 5.11515 21.0498 3.63486 19.6581C2.1712 18.0107 1.28659 15.9297 1.11599 13.7326C1.11599 13.3717 0.993122 13.0338 0.910184 12.7097C0.902707 12.1164 0.899123 11.523 0.899432 10.9296L0.902504 10.9281ZM2.63346 10.4888H17.461C17.3688 5.76443 14.3877 2.41311 10.4112 2.38239C5.98478 2.32096 2.81776 5.59855 2.62271 10.4673L2.63346 10.4888Z" fill="#FAFAFA"/>
</svg>
