<svg width="24" height="24" viewBox="0 0 24 24" fill="none" xmlns="http://www.w3.org/2000/svg">
<path fill-rule="evenodd" clip-rule="evenodd" d="M23.0384 0.291992H0V23.3304H23.0384V0.291992ZM12.2871 12.5791C12.2871 11.7645 12.6108 10.9831 13.1869 10.4071C13.7629 9.83099 14.5442 9.50735 15.3589 9.50735H17.1513C18.7056 9.50735 19.9666 10.7668 19.9666 12.3226V12.5791H18.4307V12.3226C18.4307 12.1546 18.3976 11.9883 18.3333 11.833C18.269 11.6778 18.1748 11.5368 18.056 11.418C17.9372 11.2992 17.7962 11.2049 17.6409 11.1406C17.4857 11.0763 17.3193 11.0432 17.1513 11.0432H15.3589C14.9516 11.0432 14.5609 11.2051 14.2729 11.4931C13.9849 11.7811 13.823 12.1718 13.823 12.5791C13.823 12.9865 13.9849 13.3771 14.2729 13.6652C14.5609 13.9532 14.9516 14.115 15.3589 14.115H16.8948C17.7095 14.115 18.4908 14.4387 19.0669 15.0147C19.643 15.5908 19.9666 16.3721 19.9666 17.1868C19.9666 18.0015 19.643 18.7828 19.0669 19.3589C18.4908 19.935 17.7095 20.2586 16.8948 20.2586H15.3589C14.5442 20.2586 13.7629 19.935 13.1869 19.3589C12.6108 18.7828 12.2871 18.0015 12.2871 17.1868H13.823C13.823 17.5942 13.9849 17.9848 14.2729 18.2729C14.5609 18.5609 14.9516 18.7227 15.3589 18.7227H16.8948C17.3022 18.7227 17.6928 18.5609 17.9809 18.2729C18.2689 17.9848 18.4307 17.5942 18.4307 17.1868C18.4307 16.7795 18.2689 16.3888 17.9809 16.1008C17.6928 15.8127 17.3022 15.6509 16.8948 15.6509H15.3589C14.5442 15.6509 13.7629 15.3273 13.1869 14.7512C12.6108 14.1752 12.2871 13.3938 12.2871 12.5791ZM9.21536 9.50735V17.1868C9.21536 17.5942 9.05354 17.9848 8.76551 18.2729C8.47747 18.5609 8.08681 18.7227 7.67947 18.7227C7.27212 18.7227 6.88146 18.5609 6.59343 18.2729C6.30539 17.9848 6.14357 17.5942 6.14357 17.1868H4.60768C4.60768 18.0015 4.93131 18.7828 5.50739 19.3589C6.08346 19.935 6.86478 20.2586 7.67947 20.2586C8.49416 20.2586 9.27548 19.935 9.85155 19.3589C10.4276 18.7828 10.7513 18.0015 10.7513 17.1868V9.50735H9.21536Z" fill="#FAFAFA"/>
</svg>
