<svg width="29" height="33" viewBox="0 0 29 33" fill="none" xmlns="http://www.w3.org/2000/svg">
<path d="M14.4686 0.990234C14.0539 0.990234 13.6238 1.09775 13.2706 1.29741L1.8435 7.90176C1.10628 8.33181 0.645508 9.13047 0.645508 9.99057V23.1685C0.645508 24.0286 1.10628 24.8273 1.8435 25.2574L4.8385 26.9776C6.2976 27.6841 6.78908 27.6994 7.46488 27.6994C9.61513 27.6994 10.8592 26.3939 10.8592 24.1208V11.1118C10.8592 10.9275 10.7056 10.7739 10.5213 10.7739H9.09292C8.89326 10.7739 8.73967 10.9275 8.73967 11.1118V24.1208C8.73967 25.1345 7.69526 26.1328 6.02114 25.2881L2.87255 23.4911C2.82084 23.4546 2.77855 23.4063 2.74918 23.3502C2.7198 23.2941 2.70418 23.2318 2.70361 23.1685V9.99057C2.70361 9.85234 2.76504 9.72947 2.87255 9.66803L14.2996 3.07905C14.3918 3.01761 14.5453 3.01761 14.6375 3.07905L26.0645 9.66803C26.1721 9.72947 26.2335 9.85234 26.2335 9.99057V23.1685C26.2335 23.2914 26.1721 23.4143 26.0645 23.4911L14.6375 30.0801C14.5453 30.1415 14.3918 30.1415 14.2842 30.0801L11.3968 28.3291C11.2739 28.2831 11.151 28.2677 11.0742 28.3138C10.2602 28.7745 10.1066 28.8667 9.35403 29.0971C9.16972 29.1585 8.8779 29.266 9.46154 29.5886L13.2706 31.8463C13.6392 32.0614 14.0385 32.1689 14.4686 32.1689C14.8986 32.1689 15.2979 32.0614 15.6665 31.8463L27.0936 25.2574C27.8308 24.8273 28.2916 24.0286 28.2916 23.1685V9.99057C28.2916 9.13047 27.8308 8.33181 27.0936 7.90176L15.6665 1.29741C15.3133 1.09775 14.8986 0.990234 14.4686 0.990234ZM17.5403 10.436C14.2842 10.436 12.3337 11.8029 12.3337 14.1068C12.3337 16.5796 14.2689 17.3014 17.4021 17.6086C21.1343 17.9772 21.4262 18.5301 21.4262 19.2674C21.4262 20.5422 20.3971 21.0797 18.0011 21.0797C14.96 21.0797 14.315 20.3271 14.0846 18.822C14.0684 18.7442 14.026 18.6743 13.9645 18.624C13.903 18.5736 13.8261 18.5459 13.7467 18.5455H12.2722C12.0879 18.5455 11.9497 18.6837 11.9497 18.8834C11.9497 20.7879 12.9941 23.0917 18.0011 23.0917C21.6105 23.0917 23.6839 21.6634 23.6839 19.1752C23.6839 16.7024 22.0251 16.0574 18.508 15.5812C14.96 15.1205 14.6068 14.8747 14.6068 14.0453C14.6068 13.3542 14.914 12.4326 17.5403 12.4326C19.8442 12.4326 20.7504 12.9395 21.1036 14.5215C21.1343 14.675 21.2726 14.7826 21.4262 14.7826H22.916C22.9928 14.7826 23.0849 14.7518 23.1463 14.675C23.2078 14.6136 23.2539 14.5215 23.2231 14.4293C23.0081 11.6954 21.1958 10.436 17.5403 10.436Z" fill="#FAFAFA"/>
</svg>
