<svg width="77" height="69" viewBox="0 0 77 69" fill="none" xmlns="http://www.w3.org/2000/svg">
            <path d="M77 34.5024C77 29.4011 70.6122 24.5662 60.8172 21.5696C63.079 11.5885 62.0748 3.64462 57.6473 1.10041C56.5745 0.499557 55.3603 0.197113 54.131 0.224538V3.72162C54.8529 3.72162 55.4336 3.866 55.9212 4.13229C58.0548 5.35787 58.982 10.0164 58.2601 16.0127C58.0869 17.4886 57.8045 19.0414 57.458 20.6263C54.178 19.8359 50.8489 19.2646 47.493 18.9163C45.4937 16.158 43.3125 13.5364 40.964 11.0687C46.0813 6.31395 50.8842 3.70879 54.1502 3.70879V0.208496C49.8318 0.208496 44.182 3.28529 38.4679 8.62075C32.7571 3.32058 27.104 0.272663 22.7888 0.272663V3.76975C26.0388 3.76975 30.8577 6.36208 35.975 11.0847C33.7773 13.3947 31.5796 16.0127 29.491 18.9163C26.1281 19.2608 22.7931 19.8375 19.5099 20.6424C19.1473 19.0735 18.881 17.5527 18.6917 16.093C17.9538 10.0934 18.865 5.43487 20.9857 4.19645C21.4541 3.91412 22.0669 3.78579 22.7888 3.78579V0.288704C21.4734 0.288704 20.2767 0.571038 19.2436 1.16458C14.8321 3.70879 13.844 11.6334 16.1187 21.5856C6.35571 24.6015 0 29.4172 0 34.5024C0 39.6036 6.38779 44.4386 16.1828 47.4319C13.921 57.4163 14.9252 65.3601 19.3527 67.9011C20.3729 68.4979 21.5664 68.7802 22.8818 68.7802C27.2002 68.7802 32.8501 65.7034 38.5642 60.3679C44.275 65.6713 49.9249 68.716 54.2433 68.716C55.482 68.7422 56.7055 68.4388 57.7885 67.837C62.2 65.296 63.1881 57.3714 60.9134 47.4191C70.6443 44.4225 77 39.5876 77 34.5024ZM56.5629 24.0336C55.9533 26.1314 55.2467 28.1998 54.4454 30.2321C53.1337 27.6807 51.6935 25.1974 50.1302 22.792C52.36 23.1224 54.5096 23.5299 56.5661 24.0336H56.5629ZM49.3763 40.749C48.1539 42.8665 46.8962 44.8781 45.5936 46.7454C40.8846 47.1604 36.1484 47.1658 31.4385 46.7614C28.7369 42.9024 26.3742 38.8168 24.3769 34.5505C26.3712 30.2741 28.7238 26.1742 31.4096 22.2947C36.1175 21.8788 40.8526 21.8723 45.5615 22.2754C46.8641 24.1427 48.1378 26.1382 49.3602 28.2429C50.5537 30.2962 51.6381 32.3817 52.6263 34.4863C51.6272 36.6165 50.5429 38.7058 49.3763 40.749ZM54.4454 38.7085C55.2924 40.81 56.0175 42.9146 56.611 44.9551C54.5577 45.4588 52.3889 45.8823 50.1462 46.2096C51.7031 43.7822 53.1379 41.2787 54.4454 38.7085ZM38.5321 55.456C37.0723 53.9481 35.6125 52.2701 34.1687 50.4317C35.5804 50.4959 37.0242 50.544 38.484 50.544C39.9598 50.544 41.4196 50.5119 42.8473 50.4317C41.4356 52.2701 39.9758 53.9481 38.5321 55.456ZM26.8537 46.2096C24.6905 45.8961 22.5429 45.4829 20.4178 44.9712C20.9985 42.9467 21.7204 40.8581 22.5353 38.7727C23.1802 40.0239 23.8572 41.2816 24.5951 42.5392C25.333 43.7937 26.0837 45.0193 26.8537 46.2096ZM38.4519 13.5487C39.9117 15.0567 41.3715 16.7346 42.8152 18.573C41.4035 18.5088 39.9598 18.4607 38.5 18.4607C37.0242 18.4607 35.5644 18.4928 34.1367 18.573C35.5483 16.7346 37.0081 15.0567 38.4519 13.5487ZM26.8377 22.7952C25.2812 25.2172 23.8464 27.7153 22.5385 30.2802C21.7147 28.2348 20.9919 26.15 20.3729 24.0336C22.4262 23.5459 24.5951 23.1224 26.8377 22.7952ZM12.6344 42.443C7.07758 40.0752 3.48425 36.9664 3.48425 34.5024C3.48425 32.0384 7.07758 28.9135 12.6344 26.5617C13.9819 25.981 15.4578 25.4613 16.9817 24.9768C17.8768 28.0504 19.0543 31.2523 20.5109 34.5345C19.1357 37.6215 17.9726 40.7987 17.0298 44.0439C15.5394 43.5825 14.0725 43.0482 12.6344 42.443ZM21.0788 64.8692C18.9452 63.6501 18.018 58.9852 18.7399 52.992C18.9131 51.5162 19.1955 49.9601 19.542 48.3752C22.6155 49.1292 25.9747 49.7099 29.507 50.0885C31.5064 52.8466 33.6876 55.4683 36.036 57.936C30.9187 62.6908 26.1158 65.296 22.8498 65.296C22.2336 65.3027 21.6252 65.1572 21.0788 64.8725V64.8692ZM58.3082 52.9118C59.0462 58.9082 58.135 63.5699 56.0143 64.8083C55.5459 65.0906 54.9331 65.2157 54.2112 65.2157C50.9612 65.2157 46.1422 62.6266 41.025 57.9007C43.2227 55.5972 45.4204 52.9759 47.509 50.0724C50.8719 49.7279 54.2069 49.1512 57.4901 48.3463C57.8527 49.9312 58.1318 51.452 58.3082 52.9118ZM64.3495 42.443C63.002 43.0237 61.5262 43.5434 60.0022 44.0279C59.0429 40.766 57.8638 37.5729 56.4731 34.4703C57.9168 31.2074 59.075 28.0215 59.9541 24.9608C61.5102 25.4452 62.9828 25.981 64.3656 26.5617C69.9224 28.9295 73.5157 32.0384 73.5157 34.5024C73.4997 36.9664 69.9064 40.0913 64.3495 42.443Z" fill="black" />
            <path d="M38.4834 41.6763C40.386 41.6763 42.2107 40.9205 43.5561 39.5751C44.9014 38.2298 45.6572 36.4051 45.6572 34.5024C45.6572 32.5998 44.9014 30.7751 43.5561 29.4298C42.2107 28.0844 40.386 27.3286 38.4834 27.3286C36.5808 27.3286 34.7561 28.0844 33.4107 29.4298C32.0654 30.7751 31.3096 32.5998 31.3096 34.5024C31.3096 36.4051 32.0654 38.2298 33.4107 39.5751C34.7561 40.9205 36.5808 41.6763 38.4834 41.6763Z" fill="black" />
          </svg>