<svg width="34" height="31" viewBox="0 0 34 31" fill="none" xmlns="http://www.w3.org/2000/svg">
<path d="M17.4884 12.676C19.0704 12.676 20.3605 13.9662 20.3605 15.5788C20.3605 17.1147 19.0704 18.4202 17.4884 18.4202C15.9064 18.4202 14.6163 17.1147 14.6163 15.5788C14.6163 13.9662 15.9064 12.676 17.4884 12.676ZM10.3772 27.866C11.3448 28.4496 13.4644 27.5588 15.9064 25.255C15.1078 24.3488 14.3245 23.3658 13.5872 22.3368C12.3495 22.2183 11.1191 22.0338 9.90108 21.7839C9.11778 25.0707 9.4096 27.3284 10.3772 27.866ZM11.4677 19.05L11.0223 18.2667C10.8533 18.7121 10.6844 19.1575 10.5769 19.5875C10.9916 19.6797 11.4523 19.7565 11.9285 19.8333L11.4677 19.05ZM21.5124 17.8827L22.7565 15.5788L21.5124 13.275C21.0517 12.461 20.5602 11.7391 20.1148 11.0172C19.2854 10.9712 18.4099 10.9712 17.4884 10.9712C16.5669 10.9712 15.6914 10.9712 14.862 11.0172C14.4166 11.7391 13.9251 12.461 13.4644 13.275L12.2203 15.5788L13.4644 17.8827C13.9251 18.6967 14.4166 19.4186 14.862 20.1405C15.6914 20.1865 16.5669 20.1865 17.4884 20.1865C18.4099 20.1865 19.2854 20.1865 20.1148 20.1405C20.5602 19.4186 21.0517 18.6967 21.5124 17.8827ZM17.4884 7.56148C17.1966 7.89938 16.8894 8.25263 16.5822 8.66732H18.3946C18.0874 8.25263 17.7802 7.89938 17.4884 7.56148ZM17.4884 23.5962C17.7802 23.2583 18.0874 22.9051 18.3946 22.4904H16.5822C16.8894 22.9051 17.1966 23.2583 17.4884 23.5962ZM24.5842 3.2917C23.632 2.70806 21.5124 3.59887 19.0704 5.90272C19.869 6.80889 20.6523 7.79186 21.3896 8.82091C22.649 8.94378 23.8931 9.12809 25.0757 9.37384C25.859 6.08702 25.5672 3.82926 24.5842 3.2917ZM23.5091 12.1077L23.9545 12.891C24.1235 12.4456 24.2924 12.0002 24.3999 11.5702C23.9852 11.478 23.5245 11.4012 23.0483 11.3244L23.5091 12.1077ZM25.7361 1.27968C27.9939 2.56983 28.2397 5.96415 27.2874 9.92676C31.1886 11.0787 33.9993 12.9832 33.9993 15.5788C33.9993 18.1745 31.1886 20.079 27.2874 21.2309C28.2397 25.1935 27.9939 28.5879 25.7361 29.878C23.4937 31.1682 20.4373 29.6937 17.4884 26.883C14.5395 29.6937 11.4831 31.1682 9.22529 29.878C6.98288 28.5879 6.73714 25.1935 7.68939 21.2309C3.78822 20.079 0.977539 18.1745 0.977539 15.5788C0.977539 12.9832 3.78822 11.0787 7.68939 9.92676C6.73714 5.96415 6.98288 2.56983 9.22529 1.27968C11.4831 -0.0104752 14.5395 1.46398 17.4884 4.27467C20.4373 1.46398 23.4937 -0.0104752 25.7361 1.27968ZM25.2907 15.5788C25.8129 16.7308 26.2737 17.8827 26.6577 19.05C29.8831 18.0824 31.6954 16.7 31.6954 15.5788C31.6954 14.4576 29.8831 13.0753 26.6577 12.1077C26.2737 13.275 25.8129 14.4269 25.2907 15.5788ZM9.68606 15.5788C9.16385 14.4269 8.70308 13.275 8.31911 12.1077C5.09373 13.0753 3.28138 14.4576 3.28138 15.5788C3.28138 16.7 5.09373 18.0824 8.31911 19.05C8.70308 17.8827 9.16385 16.7308 9.68606 15.5788ZM23.5091 19.05L23.0483 19.8333C23.5245 19.7565 23.9852 19.6797 24.3999 19.5875C24.2924 19.1575 24.1235 18.7121 23.9545 18.2667L23.5091 19.05ZM19.0704 25.255C21.5124 27.5588 23.632 28.4496 24.5842 27.866C25.5672 27.3284 25.859 25.0707 25.0757 21.7839C23.8931 22.0296 22.649 22.2139 21.3896 22.3368C20.6523 23.3658 19.869 24.3488 19.0704 25.255ZM11.4677 12.1077L11.9285 11.3244C11.4523 11.4012 10.9916 11.478 10.5769 11.5702C10.6844 12.0002 10.8533 12.4456 11.0223 12.891L11.4677 12.1077ZM15.9064 5.90272C13.4644 3.59887 11.3448 2.70806 10.3772 3.2917C9.4096 3.82926 9.11778 6.08702 9.90108 9.37384C11.1191 9.12393 12.3495 8.93936 13.5872 8.82091C14.3245 7.79186 15.1078 6.80889 15.9064 5.90272Z" fill="#FAFAFA"/>
</svg>
